<svg id="MSP_logo" data-name="MSP logo" xmlns="http://www.w3.org/2000/svg" width="130" height="27.944" viewBox="0 0 130 27.944">
  <path id="Path_10" data-name="Path 10" d="M-2984.874,2478.26a1.574,1.574,0,0,1,1.569-1.577,1.457,1.457,0,0,1,1.379.9,3.1,3.1,0,0,0,2.975,2.121,2.745,2.745,0,0,0,2.813-2.719c0-1.74-1.487-2.366-2.894-2.8l-1.379-.408c-1.866-.6-4.3-1.822-4.3-5.383,0-3.018,2.489-5.274,5.761-5.274,3.435,0,5.652,2.419,5.652,4.214a1.573,1.573,0,0,1-1.568,1.577,1.356,1.356,0,0,1-1.325-.9,2.9,2.9,0,0,0-2.759-1.93,2.506,2.506,0,0,0-2.569,2.5c0,1.658,1.542,2.283,2.677,2.61l1.19.381c2,.625,4.705,1.713,4.705,5.628a5.7,5.7,0,0,1-6,5.492C-2982.359,2482.692-2984.874,2480.136-2984.874,2478.26Z" transform="translate(3019.647 -2463.118)" fill="#fff"/>
  <path id="Path_11" data-name="Path 11" d="M-2831.472,2527.508a6.685,6.685,0,0,1-4.49,1.693,6.945,6.945,0,0,1-6.842-7.234,6.944,6.944,0,0,1,6.842-7.234,6.576,6.576,0,0,1,4.49,1.72v-.191a1.473,1.473,0,0,1,1.488-1.5,1.473,1.473,0,0,1,1.488,1.5v11.383a1.5,1.5,0,0,1-1.488,1.529,1.5,1.5,0,0,1-1.488-1.529Zm0-5.542v-.191a4.25,4.25,0,0,0-4.165-4.259,4.248,4.248,0,0,0-4.165,4.45,4.248,4.248,0,0,0,4.165,4.45A4.248,4.248,0,0,0-2831.472,2521.967Z" transform="translate(2891.721 -2509.627)" fill="#fff"/>
  <path id="Path_12" data-name="Path 12" d="M-2664.335,2464.884a1.47,1.47,0,0,1,1.487-1.5,1.47,1.47,0,0,1,1.488,1.5v16.5a1.494,1.494,0,0,1-1.488,1.522,1.493,1.493,0,0,1-1.487-1.522Z" transform="translate(2730.824 -2463.362)" fill="#fff"/>
  <path id="Path_13" data-name="Path 13" d="M-2599.686,2467.41a1.6,1.6,0,0,1,1.6-1.577h4.381a5.659,5.659,0,0,1,5.949,5.709,5.654,5.654,0,0,1-5.949,5.681h-.433a1.464,1.464,0,0,1-1.487-1.468,1.47,1.47,0,0,1,1.487-1.495h.325a2.7,2.7,0,0,0,2.785-2.719,2.71,2.71,0,0,0-2.785-2.746h-2.678V2483.5a1.62,1.62,0,0,1-1.6,1.6,1.62,1.62,0,0,1-1.6-1.6Z" transform="translate(2672.577 -2465.561)" fill="#fff"/>
  <path id="Path_14" data-name="Path 14" d="M-2457.144,2527.508a6.685,6.685,0,0,1-4.49,1.693,6.946,6.946,0,0,1-6.843-7.234,6.946,6.946,0,0,1,6.843-7.234,6.576,6.576,0,0,1,4.49,1.72v-.191a1.473,1.473,0,0,1,1.487-1.5,1.473,1.473,0,0,1,1.488,1.5v11.383a1.5,1.5,0,0,1-1.488,1.529,1.5,1.5,0,0,1-1.487-1.529Zm0-5.542v-.191a4.251,4.251,0,0,0-4.166-4.259,4.248,4.248,0,0,0-4.164,4.45,4.248,4.248,0,0,0,4.164,4.45A4.248,4.248,0,0,0-2457.144,2521.967Z" transform="translate(2554.383 -2509.627)" fill="#fff"/>
  <path id="Path_15" data-name="Path 15" d="M-2295.713,2521.967a7.077,7.077,0,0,1,7.167-7.234,6.822,6.822,0,0,1,5.193,2.211,1.724,1.724,0,0,1,.433,1.037,1.378,1.378,0,0,1-1.46,1.393,1.794,1.794,0,0,1-1.271-.628,3.924,3.924,0,0,0-2.894-1.228,4.281,4.281,0,0,0-4.165,4.45,4.3,4.3,0,0,0,4.165,4.45,3.908,3.908,0,0,0,2.867-1.229,1.908,1.908,0,0,1,1.3-.683,1.406,1.406,0,0,1,1.46,1.448,1.589,1.589,0,0,1-.433.982,6.714,6.714,0,0,1-5.193,2.266A7.078,7.078,0,0,1-2295.713,2521.967Z" transform="translate(2398.723 -2509.627)" fill="#fff"/>
  <path id="Path_16" data-name="Path 16" d="M-2138.973,2464.884a1.47,1.47,0,0,1,1.488-1.5,1.47,1.47,0,0,1,1.488,1.5v16.5a1.494,1.494,0,0,1-1.488,1.522,1.494,1.494,0,0,1-1.488-1.522Zm4.057,11.88a1.922,1.922,0,0,1-.406-1.115,1.711,1.711,0,0,1,.406-1.033l4.651-5.573a1.292,1.292,0,0,1,1.028-.489,1.355,1.355,0,0,1,1.406,1.359,1.271,1.271,0,0,1-.324.9l-3.922,4.7,4.138,4.92a1.666,1.666,0,0,1,.352.979,1.527,1.527,0,0,1-1.514,1.5,1.421,1.421,0,0,1-1.11-.544Z" transform="translate(2257.587 -2463.362)" fill="#fff"/>
  <path id="Path_17" data-name="Path 17" d="M-3136.954,2537.891a1.048,1.048,0,0,1-1.046-1.023,1.689,1.689,0,0,1,.151-.658l3.049-6.946-5.4-12.429a2.309,2.309,0,0,1-.162-.69,1.068,1.068,0,0,1,1.077-1.055,1.327,1.327,0,0,1,1.174.92l4.517,10.682.163-.383c1.507-3.533,3.046-7.2,4.353-10.33.28-.621.622-.888,1.141-.888a1.019,1.019,0,0,1,1.014,1.022,1.625,1.625,0,0,1-.163.656l-8.761,20.235c-.293.621-.625.888-1.109.888" transform="translate(3159.28 -2509.948)" fill="#fff"/>
  <path id="Path_18" data-name="Path 18" d="M-3318.018,2483.473a1.134,1.134,0,0,1-1.141-1.125v-14.4l-4.89,8.559a1.69,1.69,0,0,1-1.471,1.024,1.674,1.674,0,0,1-1.471-.994l-4.971-8.647v14.462a1.121,1.121,0,0,1-1.114,1.125,1.1,1.1,0,0,1-1.088-1.125v-16.613a1.6,1.6,0,0,1,1.517-1.7,1.786,1.786,0,0,1,1.66,1.051l5.519,9.922,5.439-9.919a1.7,1.7,0,0,1,1.553-1.053,1.559,1.559,0,0,1,1.572,1.614v16.694a1.121,1.121,0,0,1-1.115,1.125" transform="translate(3334.163 -2463.947)" fill="#fff"/>
</svg>
